<svg xmlns:xlink="http://www.w3.org/1999/xlink" stroke="currentColor" fill="none" stroke-width="2" viewBox="0 0 24 24" stroke-linecap="round" stroke-linejoin="round"   xmlns="http://www.w3.org/2000/svg" width="1"  height="1" >
    <path d="M9 15h-3a3 3 0 0 1 -3 -3v-6a3 3 0 0 1 3 -3h6a3 3 0 0 1 3 3v3" stroke="#7e22ce" fill="none" stroke-width="2px"></path>
    <path d="M9 9m0 3a3 3 0 0 1 3 -3h6a3 3 0 0 1 3 3v6a3 3 0 0 1 -3 3h-6a3 3 0 0 1 -3 -3z" stroke="#7e22ce" fill="none" stroke-width="2px"></path>
    <path d="M3 12l2.296 -2.296a2.41 2.41 0 0 1 3.408 0l.296 .296" stroke="#7e22ce" fill="none" stroke-width="2px"></path>
    <path d="M14 13.5v3l2.5 -1.5z" stroke="#7e22ce" fill="none" stroke-width="2px"></path>
    <path d="M7 6v.01" stroke="#7e22ce" fill="none" stroke-width="2px"></path>
</svg>